<svg width="110" height="40" viewBox="0 0 110 40" fill="none" xmlns="http://www.w3.org/2000/svg">
<path d="M0 10.8866V4.23975L12.0852 11.2319V18.0514L0 10.8866Z" fill="#8F90FC"/>
<path d="M12.0852 11.2313L18.3004 7.86475L6.0426 0.699951L0 4.23919L12.0852 11.2313Z" fill="#6A6CF9"/>
<path d="M13.9843 19.0874V12.3542L19.9405 15.5482V22.454L13.9843 19.0874Z" fill="#3F639C"/>
<path d="M26.0695 12.2676L19.9406 15.6342V22.4537L26.0695 19.1734V12.2676Z" fill="#2C4B7B"/>
<path d="M19.9405 8.98755L13.9843 12.3541L19.9405 15.6344L26.0695 12.2678L19.9405 8.98755Z" fill="#21406F"/>
<path d="M0.345337 19.0005V12.699L6.12897 16.1519V22.4535L0.345337 19.0005Z" fill="#3F639C"/>
<path d="M7.94177 23.6622V17.3606L20.3723 24.5254V30.7406L7.94177 23.6622Z" fill="#3F639C"/>
<path d="M26.1558 27.5464V20.9858L20.2859 24.6114V30.8266L26.1558 27.5464Z" fill="#2C4B7B"/>
<path d="M0.172607 27.7194V21.0725L12.7757 28.2373V34.8842L0.172607 27.7194Z" fill="#3F639C"/>
<path d="M14.3296 35.5748V29.2732L20.3722 32.6398V39.2003L14.3296 35.5748Z" fill="#3F639C"/>
<path d="M26.3285 35.6611V29.2732L20.2859 32.6398V39.114L26.3285 35.6611Z" fill="#2C4B7B"/>
<g clipPath="url(#clip0_14_230)">
<path d="M109.109 24.7439C108.813 24.4342 108.459 24.1871 108.066 24.0173C107.674 23.8475 107.251 23.7584 106.823 23.7554H101.863C101.409 23.7554 100.973 23.5748 100.651 23.2533C100.33 22.9319 100.149 22.4958 100.149 22.0412C100.149 21.5866 100.33 21.1505 100.651 20.8291C100.973 20.5076 101.409 20.327 101.863 20.327H108.434C108.622 20.3106 108.797 20.2243 108.925 20.0852C109.052 19.9461 109.123 19.7643 109.123 19.5756C109.123 19.387 109.052 19.2051 108.925 19.066C108.797 18.9269 108.622 18.8406 108.434 18.8242H101.875C101.045 18.8536 100.259 19.2025 99.681 19.7979C99.1027 20.3933 98.777 21.1892 98.7718 22.0192C98.7666 22.8491 99.0824 23.649 99.6532 24.2515C100.224 24.8541 101.006 25.2127 101.835 25.2525H106.794C107.249 25.2525 107.685 25.433 108.007 25.7545C108.328 26.076 108.509 26.512 108.509 26.9667C108.509 27.4213 108.328 27.8573 108.007 28.1788C107.685 28.5003 107.249 28.6809 106.794 28.6809H100.223C100.119 28.6718 100.014 28.6845 99.9152 28.7181C99.8162 28.7517 99.7252 28.8056 99.6481 28.8762C99.571 28.9469 99.5095 29.0328 99.4673 29.1285C99.4252 29.2242 99.4035 29.3277 99.4035 29.4323C99.4035 29.5369 99.4252 29.6402 99.4673 29.736C99.5095 29.8317 99.571 29.9177 99.6481 29.9883C99.7252 30.059 99.8162 30.1128 99.9152 30.1465C100.014 30.1801 100.119 30.1927 100.223 30.1836H106.6C107.453 30.196 108.278 29.8813 108.906 29.3043C109.534 28.7273 109.917 27.9317 109.977 27.081C109.996 26.6531 109.929 26.2258 109.78 25.8243C109.631 25.4229 109.402 25.0555 109.109 24.7439Z" fill="white"/>
<path d="M76.3788 18.6357C75.2555 18.6357 74.1574 18.9688 73.2234 19.5929C72.2893 20.217 71.5613 21.1041 71.1315 22.1419C70.7016 23.1797 70.5891 24.3217 70.8082 25.4235C71.0274 26.5252 71.5683 27.5373 72.3626 28.3316C73.1569 29.1259 74.169 29.6668 75.2707 29.886C76.3725 30.1051 77.5145 29.9927 78.5523 29.5628C79.5901 29.133 80.4772 28.405 81.1013 27.4709C81.7254 26.5369 82.0586 25.4388 82.0586 24.3154C82.0586 23.5695 81.9116 22.831 81.6262 22.1419C81.3407 21.4528 80.9224 20.8267 80.395 20.2993C79.8676 19.7719 79.2414 19.3535 78.5523 19.0681C77.8632 18.7826 77.1247 18.6357 76.3788 18.6357ZM76.3788 28.4924C75.5527 28.4924 74.7452 28.2474 74.0583 27.7884C73.3714 27.3295 72.836 26.6771 72.5198 25.9139C72.2037 25.1507 72.121 24.3108 72.2821 23.5006C72.4433 22.6903 72.8411 21.946 73.4253 21.3619C74.0094 20.7777 74.7537 20.38 75.5639 20.2188C76.3742 20.0576 77.2141 20.1403 77.9773 20.4564C78.7405 20.7726 79.3928 21.308 79.8518 21.9949C80.3107 22.6818 80.5558 23.4893 80.5558 24.3154C80.5558 25.4232 80.1157 26.4856 79.3323 27.2689C78.549 28.0523 77.4866 28.4924 76.3788 28.4924Z" fill="white"/>
<path d="M46.6034 20.5727L46.3977 20.367C45.7918 19.7147 45.0313 19.2254 44.1864 18.9443C43.3667 18.6696 42.4954 18.5845 41.638 18.6954C40.7806 18.8063 39.9596 19.1102 39.2368 19.5844C38.5139 20.0586 37.9081 20.6907 37.4649 21.433C37.0217 22.1753 36.7527 23.0084 36.6782 23.8697V24.0525C36.6463 24.8768 36.7932 25.6981 37.1088 26.4602C37.4244 27.2223 37.9013 27.907 38.5066 28.4673C39.112 29.0276 39.8314 29.4501 40.6156 29.706C41.3998 29.9618 42.23 30.0449 43.0493 29.9494L43.3807 29.8865C43.4834 29.8795 43.5823 29.8449 43.667 29.7863C43.7516 29.7277 43.8189 29.6473 43.8616 29.5537C43.9043 29.46 43.9209 29.3565 43.9097 29.2542C43.8985 29.1519 43.8598 29.0545 43.7978 28.9723L43.6207 28.6923C43.5475 28.5888 43.4461 28.5085 43.3286 28.4609C43.2112 28.4133 43.0825 28.4005 42.9579 28.4238C42.2488 28.5357 41.5228 28.462 40.8507 28.2098C40.1786 27.9576 39.5833 27.5356 39.1229 26.9848C38.6625 26.434 38.3527 25.7734 38.2237 25.0672C38.0947 24.361 38.1508 23.6334 38.3867 22.9554C38.7477 21.9098 39.5086 21.05 40.5027 20.5647C41.4968 20.0795 42.6429 20.0084 43.6893 20.367C43.9839 20.4672 44.2658 20.6015 44.5293 20.767C44.5293 20.767 46.2092 21.6984 44.6893 22.7497L44.6321 22.7841C44.606 22.8033 44.5812 22.8243 44.5578 22.8469L43.335 23.6469C43.2152 23.7322 43.122 23.8497 43.0663 23.9859C43.0106 24.122 42.9947 24.2711 43.0205 24.4159C43.0462 24.5608 43.1125 24.6953 43.2117 24.804C43.3108 24.9126 43.4388 24.9908 43.5807 25.0296C43.6726 25.0486 43.7673 25.0493 43.8595 25.0316C43.9517 25.014 44.0395 24.9784 44.1179 24.9268L46.1634 23.5897C46.4075 23.4303 46.6144 23.2201 46.7702 22.9736C46.926 22.7272 47.027 22.4501 47.0663 22.1613C47.107 21.8788 47.0866 21.5908 47.0068 21.3168C46.927 21.0429 46.7894 20.7892 46.6034 20.5727Z" fill="white"/>
<path d="M58.9282 20.7898C58.3783 20.2605 57.728 19.8467 57.0155 19.5729C56.303 19.2991 55.5428 19.1708 54.78 19.1956C54.6284 19.1956 54.483 19.2559 54.3759 19.363C54.2687 19.4702 54.2086 19.6155 54.2086 19.767V20.0984C54.2081 20.1763 54.2235 20.2536 54.254 20.3253C54.2844 20.397 54.3292 20.4618 54.3857 20.5156C54.4397 20.5692 54.504 20.6115 54.5746 20.6399C54.6453 20.6684 54.7209 20.6824 54.797 20.6812C55.3601 20.6658 55.9205 20.7629 56.4455 20.967C56.9704 21.1711 57.4493 21.4781 57.854 21.8698C58.2546 22.2559 58.5726 22.7194 58.7887 23.2321C59.0048 23.7448 59.1145 24.2961 59.1111 24.8525C59.1113 25.4344 58.99 26.0099 58.7548 26.5421C58.5196 27.0744 58.1758 27.5516 57.7454 27.9433C57.315 28.3349 56.8076 28.6323 56.2556 28.8164C55.7036 29.0004 55.1192 29.0672 54.5399 29.0123C53.4932 28.8857 52.5301 28.3771 51.8352 27.5841C51.1403 26.7912 50.7626 25.7696 50.7744 24.7153V15.0016C50.7744 14.8091 50.6979 14.6245 50.5618 14.4884C50.4258 14.3523 50.2412 14.2759 50.0488 14.2759C49.8427 14.2759 49.645 14.3577 49.4993 14.5035C49.3535 14.6492 49.2717 14.8469 49.2717 15.053V24.6639C49.251 26.1778 49.8214 27.6401 50.8616 28.7401C51.9019 29.8401 53.3301 30.4912 54.8428 30.555C55.9832 30.577 57.1036 30.2548 58.0581 29.6304C59.0126 29.006 59.7568 28.1084 60.1935 27.0548C60.6303 26.0012 60.7393 24.8404 60.5065 23.7238C60.2737 22.6073 59.7097 21.5868 58.8883 20.7956L58.9282 20.7898Z" fill="white"/>
<path d="M50.0603 12.756C50.2109 12.756 50.358 12.7113 50.4831 12.6275C50.6082 12.5437 50.7056 12.4247 50.7629 12.2855C50.8203 12.1463 50.835 11.9932 50.8052 11.8457C50.7754 11.6981 50.7024 11.5627 50.5956 11.4567C50.4887 11.3506 50.3528 11.2787 50.2051 11.25C50.0573 11.2213 49.9042 11.2372 49.7655 11.2956C49.6267 11.354 49.5084 11.4523 49.4256 11.578C49.3428 11.7038 49.2992 11.8512 49.3003 12.0018C49.3003 12.1013 49.32 12.1998 49.3583 12.2917C49.3965 12.3836 49.4526 12.467 49.5232 12.5371C49.5939 12.6072 49.6777 12.6627 49.7699 12.7002C49.862 12.7378 49.9608 12.7567 50.0603 12.756Z" fill="white"/>
<path d="M65.2594 13.7104C65.0598 13.7119 64.8688 13.7919 64.7277 13.933C64.5866 14.0742 64.5066 14.2651 64.5051 14.4647V29.2468C64.5215 29.4347 64.6079 29.6098 64.747 29.7372C64.8861 29.8647 65.0679 29.9355 65.2566 29.9355C65.4452 29.9355 65.6271 29.8647 65.7662 29.7372C65.9053 29.6098 65.9915 29.4347 66.0079 29.2468V14.4647C66.0079 14.2656 65.9292 14.0747 65.789 13.9334C65.6488 13.7921 65.4585 13.712 65.2594 13.7104Z" fill="white"/>
<path d="M68.2766 28.481C68.1263 28.481 67.9793 28.5255 67.8543 28.609C67.7293 28.6925 67.632 28.8112 67.5745 28.9501C67.5169 29.089 67.5019 29.2418 67.5312 29.3892C67.5605 29.5366 67.6328 29.672 67.7391 29.7783C67.8454 29.8846 67.9809 29.9569 68.1283 29.9863C68.2757 30.0156 68.4285 30.0005 68.5674 29.943C68.7062 29.8855 68.8249 29.7881 68.9084 29.6632C68.9919 29.5382 69.0365 29.3912 69.0365 29.2409C69.0365 29.0393 68.9564 28.8461 68.8139 28.7035C68.6714 28.561 68.4781 28.481 68.2766 28.481Z" fill="white"/>
<path d="M94.1037 20.3787C93.2703 19.6164 92.2297 19.1181 91.1133 18.9469C89.9969 18.7757 88.8548 18.9392 87.8313 19.4167C86.8078 19.8943 85.9488 20.6644 85.3627 21.6299C84.7766 22.5953 84.4898 23.7129 84.5385 24.8413C84.6342 26.3205 85.3009 27.7047 86.398 28.7015C87.4951 29.6984 88.9366 30.2299 90.4182 30.1838C90.5698 30.1838 90.7151 30.1236 90.8222 30.0165C90.9294 29.9093 90.9896 29.764 90.9896 29.6124V29.2753C90.9898 29.1968 90.9738 29.1191 90.9426 29.047C90.9114 28.9749 90.8657 28.9101 90.8084 28.8565C90.751 28.8028 90.6832 28.7616 90.6091 28.7354C90.5351 28.7091 90.4565 28.6984 90.3782 28.7039C89.8154 28.7178 89.2554 28.6199 88.7307 28.4159C88.2059 28.2119 87.7269 27.9058 87.3212 27.5154C86.9202 27.1284 86.602 26.664 86.3859 26.1503C86.1698 25.6366 86.0604 25.0842 86.0642 24.527C86.0634 23.978 86.1711 23.4344 86.3812 22.9272C86.5913 22.4201 86.8995 21.9594 87.2882 21.5717C87.6769 21.1841 88.1384 20.8772 88.6461 20.6685C89.1539 20.4598 89.6978 20.3535 90.2468 20.3558H90.6467C91.693 20.4836 92.6554 20.9925 93.3501 21.7852C94.0447 22.5779 94.4229 23.5988 94.4123 24.6527V34.5322C94.4123 34.6837 94.4725 34.8291 94.5796 34.9362C94.6868 35.0434 94.8322 35.1036 94.9837 35.1036H95.3208C95.4724 35.1036 95.6177 35.0434 95.7249 34.9362C95.832 34.8291 95.8922 34.6837 95.8922 34.5322V24.5099C95.8948 23.7352 95.7373 22.9683 95.4295 22.2574C95.1217 21.5465 94.6704 20.9069 94.1037 20.3787Z" fill="white"/>
<path d="M95.1265 36.6231C94.976 36.6231 94.8288 36.6678 94.7037 36.7515C94.5786 36.8353 94.4812 36.9543 94.4239 37.0935C94.3665 37.2327 94.3518 37.3858 94.3816 37.5334C94.4114 37.681 94.4844 37.8164 94.5912 37.9225C94.6981 38.0285 94.834 38.1004 94.9818 38.1291C95.1296 38.1577 95.2825 38.1419 95.4213 38.0835C95.5601 38.0251 95.6784 37.9268 95.7612 37.8011C95.844 37.6754 95.8876 37.5279 95.8865 37.3774C95.8865 37.2778 95.8668 37.1792 95.8285 37.0873C95.7903 36.9954 95.7342 36.9121 95.6636 36.8419C95.5929 36.7718 95.5091 36.7164 95.4169 36.6789C95.3247 36.6413 95.2261 36.6223 95.1265 36.6231Z" fill="white"/>
</g>
<defs>
<clipPath id="clip0_14_230">
<rect width="73.3333" height="26.89" fill="white" transform="translate(36.6666 11.2422)"/>
</clipPath>
</defs>
</svg>
