<svg width="114" height="40" viewBox="0 0 114 40" fill="none" xmlns="http://www.w3.org/2000/svg">
<path d="M0 10.5565V3.66797L12.5247 10.9144V17.9819L0 10.5565Z" fill="#8F90FC"/>
<path d="M12.5247 10.9143L18.9659 7.42534L6.26233 0L0 3.66794L12.5247 10.9143Z" fill="#6A6CF9"/>
<path d="M14.4928 19.0554V12.0774L20.6656 15.3875V22.5444L14.4928 19.0554Z" fill="#3F639C"/>
<path d="M27.0174 11.988L20.6656 15.4771V22.5445L27.0174 19.145V11.988Z" fill="#2C4B7B"/>
<path d="M20.6656 8.58862L14.4928 12.0776L20.6656 15.4772L27.0174 11.9882L20.6656 8.58862Z" fill="#21406F"/>
<path d="M0.357864 18.9658V12.4351L6.35181 16.0135V22.5443L0.357864 18.9658Z" fill="#3F639C"/>
<path d="M8.23055 23.7968V17.2661L21.1131 24.6914V31.1327L8.23055 23.7968Z" fill="#3F639C"/>
<path d="M27.1069 27.8225V21.0234L21.0235 24.7808V31.2221L27.1069 27.8225Z" fill="#2C4B7B"/>
<path d="M0.178848 28.0016V21.113L13.2403 28.5384V35.4269L0.178848 28.0016Z" fill="#3F639C"/>
<path d="M14.8506 36.1428V29.6121L21.113 33.1011V39.9002L14.8506 36.1428Z" fill="#3F639C"/>
<path d="M27.2858 36.2322V29.6121L21.0235 33.1011V39.8107L27.2858 36.2322Z" fill="#2C4B7B"/>
<g clipPath="url(#clip0_12_121)">
<path d="M113.076 24.9181C112.77 24.5972 112.403 24.3411 111.996 24.1651C111.589 23.9891 111.151 23.8968 110.708 23.8937H105.567C105.096 23.8937 104.644 23.7065 104.311 23.3734C103.978 23.0402 103.791 22.5883 103.791 22.1172C103.791 21.646 103.978 21.1941 104.311 20.861C104.644 20.5278 105.096 20.3406 105.567 20.3406H112.377C112.572 20.3236 112.754 20.2342 112.886 20.0901C113.018 19.9459 113.091 19.7575 113.091 19.562C113.091 19.3664 113.018 19.178 112.886 19.0338C112.754 18.8897 112.572 18.8002 112.377 18.7832H105.579C104.72 18.8137 103.905 19.1753 103.306 19.7923C102.707 20.4094 102.369 21.2342 102.364 22.0943C102.358 22.9545 102.685 23.7834 103.277 24.4079C103.869 25.0323 104.679 25.404 105.538 25.4452H110.678C111.149 25.4452 111.601 25.6324 111.934 25.9655C112.267 26.2987 112.454 26.7506 112.454 27.2217C112.454 27.6929 112.267 28.1448 111.934 28.4779C111.601 28.8111 111.149 28.9983 110.678 28.9983H103.868C103.76 28.9888 103.651 29.002 103.549 29.0369C103.446 29.0717 103.352 29.1275 103.272 29.2007C103.192 29.274 103.128 29.363 103.084 29.4622C103.041 29.5614 103.018 29.6686 103.018 29.777C103.018 29.8854 103.041 29.9925 103.084 30.0917C103.128 30.191 103.192 30.2801 103.272 30.3533C103.352 30.4265 103.446 30.4823 103.549 30.5172C103.651 30.552 103.76 30.5651 103.868 30.5557H110.477C111.36 30.5685 112.215 30.2424 112.866 29.6444C113.517 29.0464 113.914 28.2219 113.976 27.3402C113.996 26.8968 113.926 26.4539 113.772 26.0379C113.617 25.6218 113.381 25.2411 113.076 24.9181Z" fill="#170658"/>
<path d="M79.1563 18.5879C77.9921 18.5879 76.8541 18.9331 75.8861 19.5799C74.9181 20.2267 74.1636 21.146 73.7181 22.2216C73.2726 23.2971 73.156 24.4806 73.3832 25.6225C73.6103 26.7643 74.1709 27.8131 74.9941 28.6363C75.8173 29.4595 76.8661 30.0201 78.0079 30.2472C79.1498 30.4744 80.3333 30.3579 81.4088 29.9123C82.4844 29.4668 83.4037 28.7124 84.0505 27.7444C84.6973 26.7764 85.0426 25.6383 85.0426 24.4741C85.0426 23.7011 84.8903 22.9357 84.5945 22.2216C84.2987 21.5074 83.8651 20.8585 83.3185 20.3119C82.7719 19.7654 82.123 19.3317 81.4088 19.0359C80.6947 18.7401 79.9293 18.5879 79.1563 18.5879ZM79.1563 28.8029C78.3001 28.8029 77.4632 28.5491 76.7514 28.0734C76.0395 27.5978 75.4846 26.9217 75.157 26.1307C74.8294 25.3397 74.7436 24.4693 74.9107 23.6296C75.0777 22.7899 75.49 22.0186 76.0954 21.4132C76.7008 20.8078 77.4721 20.3956 78.3118 20.2285C79.1515 20.0615 80.0219 20.1472 80.8129 20.4748C81.6039 20.8024 82.2799 21.3573 82.7556 22.0692C83.2312 22.781 83.4851 23.6179 83.4851 24.4741C83.4851 25.6222 83.029 26.7232 82.2172 27.535C81.4054 28.3468 80.3044 28.8029 79.1563 28.8029Z" fill="#170658"/>
<path d="M48.2981 20.5954L48.0849 20.3822C47.4569 19.7061 46.6688 19.199 45.7932 18.9077C44.9437 18.623 44.0407 18.5348 43.1521 18.6498C42.2636 18.7647 41.4127 19.0797 40.6636 19.5711C39.9144 20.0626 39.2865 20.7176 38.8273 21.4869C38.368 22.2561 38.0892 23.1196 38.012 24.0122V24.2017C37.9789 25.0559 38.1311 25.9071 38.4582 26.6969C38.7853 27.4867 39.2795 28.1963 39.9069 28.777C40.5342 29.3576 41.2799 29.7956 42.0925 30.0607C42.9052 30.3259 43.7657 30.412 44.6148 30.313L44.9582 30.2478C45.0647 30.2405 45.1672 30.2047 45.2549 30.1439C45.3426 30.0832 45.4123 29.9999 45.4566 29.9029C45.5009 29.8058 45.5181 29.6986 45.5065 29.5925C45.4948 29.4865 45.4548 29.3855 45.3905 29.3003L45.207 29.0102C45.1311 28.903 45.026 28.8197 44.9042 28.7704C44.7825 28.7211 44.6491 28.7077 44.52 28.7319C43.7852 28.8479 43.0328 28.7715 42.3362 28.5101C41.6397 28.2487 41.0227 27.8114 40.5456 27.2406C40.0684 26.6698 39.7474 25.9851 39.6137 25.2533C39.4799 24.5214 39.5381 23.7673 39.7826 23.0647C40.1567 21.981 40.9453 21.09 41.9756 20.5871C43.0058 20.0841 44.1935 20.0105 45.278 20.3822C45.5833 20.486 45.8755 20.6251 46.1485 20.7967C46.1485 20.7967 47.8895 21.7619 46.3143 22.8515L46.2551 22.8871C46.228 22.9071 46.2023 22.9288 46.1781 22.9522L44.9109 23.7813C44.7867 23.8697 44.6901 23.9915 44.6324 24.1326C44.5746 24.2737 44.5582 24.4282 44.5849 24.5783C44.6115 24.7284 44.6802 24.8679 44.783 24.9805C44.8858 25.093 45.0184 25.1741 45.1655 25.2143C45.2607 25.234 45.3589 25.2347 45.4544 25.2164C45.5499 25.1981 45.6409 25.1612 45.7222 25.1078L47.8421 23.7221C48.0951 23.5568 48.3095 23.339 48.471 23.0836C48.6324 22.8281 48.7371 22.541 48.7778 22.2416C48.8199 21.9489 48.7989 21.6505 48.7162 21.3665C48.6334 21.0826 48.4909 20.8197 48.2981 20.5954Z" fill="#170658"/>
<path d="M61.0711 20.8204C60.5012 20.2718 59.8272 19.843 59.0888 19.5592C58.3504 19.2755 57.5626 19.1425 56.772 19.1682C56.6149 19.1682 56.4643 19.2307 56.3532 19.3417C56.2422 19.4528 56.1798 19.6033 56.1798 19.7604V20.1038C56.1793 20.1846 56.1953 20.2646 56.2269 20.339C56.2585 20.4133 56.3049 20.4805 56.3634 20.5362C56.4194 20.5918 56.486 20.6356 56.5592 20.6651C56.6324 20.6946 56.7108 20.7091 56.7897 20.7079C57.3732 20.6918 57.954 20.7925 58.4981 21.004C59.0421 21.2155 59.5384 21.5337 59.9578 21.9396C60.373 22.3398 60.7025 22.8201 60.9265 23.3515C61.1504 23.8828 61.2642 24.4542 61.2607 25.0308C61.2609 25.6338 61.1351 26.2303 60.8914 26.7819C60.6476 27.3335 60.2913 27.8281 59.8453 28.234C59.3993 28.6399 58.8734 28.948 58.3013 29.1388C57.7292 29.3296 57.1236 29.3988 56.5233 29.3419C55.4385 29.2106 54.4403 28.6836 53.7202 27.8618C53 27.04 52.6085 25.9813 52.6208 24.8887V14.8217C52.6208 14.6222 52.5415 14.4309 52.4005 14.2898C52.2595 14.1488 52.0682 14.0696 51.8688 14.0696C51.6552 14.0696 51.4503 14.1544 51.2993 14.3055C51.1482 14.4565 51.0634 14.6613 51.0634 14.8749V24.8354C51.042 26.4043 51.6331 27.9198 52.7112 29.0598C53.7893 30.1998 55.2695 30.8746 56.8371 30.9407C58.019 30.9635 59.1802 30.6295 60.1694 29.9825C61.1586 29.3354 61.9298 28.4051 62.3824 27.3132C62.8351 26.2212 62.9481 25.0183 62.7068 23.8611C62.4655 22.7039 61.8811 21.6464 61.0297 20.8263L61.0711 20.8204Z" fill="#170658"/>
<path d="M51.8807 12.4944C52.0368 12.4944 52.1892 12.448 52.3189 12.3612C52.4485 12.2744 52.5495 12.151 52.6089 12.0068C52.6683 11.8625 52.6836 11.7039 52.6527 11.5509C52.6218 11.398 52.5462 11.2577 52.4355 11.1478C52.3247 11.0379 52.1839 10.9633 52.0307 10.9336C51.8776 10.9039 51.719 10.9204 51.5752 10.9809C51.4314 11.0414 51.3088 11.1433 51.2229 11.2736C51.1371 11.4039 51.0919 11.5567 51.0931 11.7127C51.0931 11.8159 51.1135 11.918 51.1532 12.0132C51.1928 12.1084 51.2509 12.1949 51.3241 12.2675C51.3973 12.3402 51.4842 12.3977 51.5797 12.4366C51.6753 12.4755 51.7776 12.4951 51.8807 12.4944Z" fill="#170658"/>
<path d="M67.6325 13.4834C67.4257 13.4849 67.2277 13.5678 67.0815 13.7141C66.9352 13.8603 66.8524 14.0582 66.8508 14.265V29.5847C66.8678 29.7795 66.9573 29.9609 67.1014 30.093C67.2456 30.2251 67.434 30.2984 67.6296 30.2984C67.8251 30.2984 68.0135 30.2251 68.1577 30.093C68.3019 29.9609 68.3912 29.7795 68.4083 29.5847V14.265C68.4083 14.0587 68.3267 13.8609 68.1814 13.7144C68.0361 13.568 67.8388 13.485 67.6325 13.4834Z" fill="#170658"/>
<path d="M70.7594 28.791C70.6036 28.791 70.4513 28.8372 70.3218 28.9237C70.1922 29.0103 70.0913 29.1333 70.0317 29.2772C69.9721 29.4211 69.9565 29.5795 69.9869 29.7323C70.0173 29.885 70.0923 30.0254 70.2024 30.1356C70.3126 30.2457 70.4529 30.3207 70.6057 30.351C70.7585 30.3814 70.9168 30.3658 71.0607 30.3062C71.2047 30.2466 71.3277 30.1457 71.4142 30.0162C71.5008 29.8867 71.547 29.7344 71.547 29.5786C71.547 29.3697 71.464 29.1694 71.3163 29.0217C71.1686 28.874 70.9683 28.791 70.7594 28.791Z" fill="#170658"/>
<path d="M97.5257 20.3941C96.662 19.6041 95.5835 19.0877 94.4265 18.9102C93.2696 18.7328 92.086 18.9023 91.0252 19.3972C89.9645 19.892 89.0742 20.6902 88.4668 21.6908C87.8594 22.6913 87.5622 23.8495 87.6127 25.0189C87.7118 26.552 88.4028 27.9865 89.5398 29.0196C90.6767 30.0527 92.1707 30.6035 93.7062 30.5558C93.8633 30.5558 94.0138 30.4934 94.1249 30.3824C94.2359 30.2713 94.2984 30.1206 94.2984 29.9636V29.6142C94.2986 29.5328 94.282 29.4523 94.2497 29.3776C94.2173 29.3029 94.17 29.2357 94.1105 29.1801C94.051 29.1246 93.9807 29.0819 93.904 29.0547C93.8273 29.0275 93.7459 29.0164 93.6647 29.0221C93.0814 29.0364 92.5011 28.935 91.9573 28.7236C91.4135 28.5121 90.917 28.195 90.4966 27.7903C90.081 27.3893 89.7511 26.9079 89.5272 26.3755C89.3033 25.8432 89.1899 25.2708 89.1938 24.6932C89.193 24.1243 89.3046 23.5609 89.5224 23.0353C89.7401 22.5097 90.0595 22.0323 90.4624 21.6305C90.8652 21.2288 91.3435 20.9107 91.8697 20.6944C92.3959 20.4781 92.9596 20.368 93.5285 20.3704H93.943C95.0273 20.5028 96.0247 21.0302 96.7446 21.8517C97.4646 22.6732 97.8565 23.7313 97.8455 24.8235V35.0622C97.8455 35.2193 97.9079 35.3699 98.0189 35.481C98.13 35.592 98.2806 35.6544 98.4377 35.6544H98.7871C98.9441 35.6544 99.0948 35.592 99.2058 35.481C99.3169 35.3699 99.3792 35.2193 99.3792 35.0622V24.6755C99.3819 23.8727 99.2186 23.0779 98.8997 22.3411C98.5807 21.6044 98.1129 20.9415 97.5257 20.3941Z" fill="#170658"/>
<path d="M98.5858 37.2295C98.4297 37.2295 98.2772 37.2759 98.1476 37.3627C98.0179 37.4495 97.917 37.5728 97.8575 37.7171C97.7981 37.8614 97.7829 38.02 97.8137 38.1729C97.8446 38.3259 97.9202 38.4662 98.031 38.5762C98.1417 38.6861 98.2826 38.7606 98.4358 38.7903C98.5889 38.82 98.7474 38.8036 98.8912 38.7431C99.0351 38.6825 99.1577 38.5807 99.2435 38.4504C99.3293 38.3201 99.3745 38.1672 99.3733 38.0112C99.3733 37.9081 99.3529 37.8059 99.3133 37.7107C99.2736 37.6154 99.2155 37.529 99.1423 37.4564C99.0691 37.3837 98.9822 37.3263 98.8867 37.2873C98.7912 37.2484 98.6889 37.2287 98.5858 37.2295Z" fill="#170658"/>
</g>
<defs>
<clipPath id="clip0_12_121">
<rect width="76" height="27.8679" fill="white" transform="translate(38 10.9253)"/>
</clipPath>
</defs>
</svg>
