<svg width="24" height="24" viewBox="0 0 24 24" fill="none" xmlns="http://www.w3.org/2000/svg">
<g clip-path="url(#clip0_110_300)">
<circle cx="13" cy="14" r="7" fill="white"/>
<path d="M23.2799 12.3382C23.4944 12.0446 23.6466 11.7102 23.7273 11.3557C23.808 11.0011 23.8153 10.6339 23.749 10.2764C23.6884 9.91637 23.5557 9.57234 23.3588 9.26491C23.162 8.95747 22.9051 8.69297 22.6035 8.48726L21.0108 7.40726C20.9446 7.36166 20.8896 7.30165 20.8499 7.23174C20.8102 7.16183 20.7869 7.08384 20.7817 7.00363L20.6399 5.09454C20.6142 4.73061 20.5149 4.37569 20.3481 4.05128C20.1812 3.72687 19.9501 3.43973 19.669 3.20726C19.39 2.97182 19.0668 2.79454 18.7183 2.68588C18.3699 2.57722 18.0032 2.53936 17.6399 2.57454L15.7417 2.7709C15.6595 2.78167 15.5759 2.77242 15.498 2.74393C15.4201 2.71544 15.3503 2.66855 15.2944 2.60726L13.9526 1.23272C13.6977 0.973608 13.3937 0.767825 13.0585 0.627358C12.7232 0.486892 12.3634 0.414551 11.9999 0.414551C11.6364 0.414551 11.2765 0.486892 10.9413 0.627358C10.606 0.767825 10.3021 0.973608 10.0471 1.23272L8.70533 2.60726C8.64947 2.66855 8.57963 2.71544 8.50176 2.74393C8.42388 2.77242 8.34028 2.78167 8.25805 2.7709L6.35987 2.57454C5.99688 2.54012 5.63067 2.57826 5.28256 2.68673C4.93445 2.7952 4.6114 2.97184 4.33221 3.20636C4.05302 3.44088 3.82327 3.7286 3.65634 4.05276C3.48941 4.37692 3.38863 4.73105 3.35987 5.09454L3.21806 7.00363C3.21184 7.08634 3.18704 7.16657 3.14548 7.23835C3.10392 7.31014 3.04669 7.3716 2.97806 7.41817L1.39624 8.49817C1.09661 8.70336 0.840959 8.96631 0.644275 9.27159C0.44759 9.57687 0.31383 9.91834 0.250835 10.276C0.18784 10.6336 0.196878 11.0003 0.27742 11.3544C0.357962 11.7085 0.508386 12.043 0.719874 12.3382L1.84351 13.8982C1.89081 13.9655 1.92224 14.0427 1.93547 14.124C1.94869 14.2052 1.94336 14.2884 1.91987 14.3673L1.39624 16.2109C1.29924 16.5623 1.27341 16.9296 1.32024 17.2911C1.36707 17.6527 1.48563 18.0012 1.66896 18.3164C1.85045 18.6319 2.09374 18.9076 2.38429 19.1269C2.67484 19.3462 3.00665 19.5047 3.35987 19.5927L5.21442 20.0618C5.29381 20.0818 5.36755 20.1197 5.42997 20.1726C5.49239 20.2256 5.54181 20.2922 5.57442 20.3673L6.35987 22.1127C6.50875 22.446 6.72304 22.7459 6.99003 22.9948C7.25701 23.2437 7.57126 23.4364 7.91413 23.5615C8.257 23.6867 8.62151 23.7417 8.98604 23.7233C9.35057 23.7049 9.70769 23.6135 10.0362 23.4545L11.7599 22.6254C11.8343 22.5878 11.9165 22.5682 11.9999 22.5682C12.0833 22.5682 12.1655 22.5878 12.2399 22.6254L13.9635 23.4545C14.3301 23.6347 14.7332 23.728 15.1417 23.7273C15.4615 23.727 15.7789 23.6716 16.0799 23.5636C16.4232 23.4374 16.7379 23.2441 17.0057 22.995C17.2735 22.7459 17.4891 22.446 17.6399 22.1127L18.4253 20.3673C18.4579 20.2922 18.5074 20.2256 18.5698 20.1726C18.6322 20.1197 18.7059 20.0818 18.7853 20.0618L20.6399 19.5927C20.993 19.5038 21.3247 19.3449 21.6153 19.1254C21.9059 18.9059 22.1495 18.6303 22.3316 18.3149C22.5137 17.9995 22.6307 17.6508 22.6755 17.2894C22.7203 16.9279 22.6921 16.5612 22.5926 16.2109L22.0799 14.3673C22.0564 14.2884 22.0511 14.2052 22.0643 14.124C22.0775 14.0427 22.1089 13.9655 22.1562 13.8982L23.2799 12.3382ZM16.9853 10.3091L11.9235 15.3709C11.47 15.8182 10.8587 16.0691 10.2217 16.0691C9.58471 16.0691 8.97334 15.8182 8.51987 15.3709L7.01442 13.8654C6.90293 13.7558 6.81439 13.6251 6.75395 13.4808C6.69351 13.3366 6.66238 13.1818 6.66238 13.0254C6.66238 12.8691 6.69351 12.7143 6.75395 12.5701C6.81439 12.4258 6.90293 12.2951 7.01442 12.1854C7.23854 11.9652 7.5402 11.8418 7.85442 11.8418C8.16864 11.8418 8.47029 11.9652 8.69442 12.1854L10.1999 13.6909L15.3162 8.62908C15.539 8.40775 15.8406 8.28398 16.1546 8.285C16.4687 8.28602 16.7694 8.41175 16.9908 8.63454C17.2121 8.85732 17.3359 9.1589 17.3349 9.47294C17.3338 9.78698 17.2081 10.0877 16.9853 10.3091V10.3091Z" fill="#2E96F5"/>
</g>
<defs>
<clipPath id="clip0_110_300">
<rect width="24" height="24" fill="white"/>
</clipPath>
</defs>
</svg>
