<svg width="19" height="20" viewBox="0 0 19 20" fill="none" xmlns="http://www.w3.org/2000/svg">
<path d="M9.50007 2.5752C11.3493 4.21123 13.7628 5.06306 16.2292 4.9502C16.5883 6.17175 16.6982 7.45302 16.5523 8.71788C16.4065 9.98274 16.0078 11.2054 15.3801 12.3131C14.7524 13.4209 13.9084 14.3911 12.8983 15.1662C11.8882 15.9414 10.7325 16.5055 9.50007 16.8252C8.26762 16.5055 7.11199 15.9414 6.10188 15.1662C5.09176 14.3911 4.24777 13.4209 3.62004 12.3131C2.99232 11.2054 2.59368 9.98274 2.44781 8.71788C2.30194 7.45302 2.41181 6.17175 2.77091 4.9502C5.23737 5.06306 7.65087 4.21123 9.50007 2.5752" stroke="black" stroke-width="1.1875" stroke-linecap="round" stroke-linejoin="round"/>
<path d="M9.49992 9.70028C9.93714 9.70028 10.2916 9.34584 10.2916 8.90861C10.2916 8.47138 9.93714 8.11694 9.49992 8.11694C9.06269 8.11694 8.70825 8.47138 8.70825 8.90861C8.70825 9.34584 9.06269 9.70028 9.49992 9.70028Z" stroke="black" stroke-width="1.1875" stroke-linecap="round" stroke-linejoin="round"/>
<path d="M9.5 9.7002V11.6794" stroke="black" stroke-width="1.1875" stroke-linecap="round" stroke-linejoin="round"/>
</svg>
