<svg width="19" height="20" viewBox="0 0 19 20" fill="none" xmlns="http://www.w3.org/2000/svg">
<path d="M4.75 4.9502H11.0833C11.7132 4.9502 12.3173 5.20042 12.7627 5.64582C13.2081 6.09122 13.4583 6.69531 13.4583 7.3252C13.4583 7.95508 13.2081 8.55918 12.7627 9.00457C12.3173 9.44997 11.7132 9.7002 11.0833 9.7002C11.7132 9.7002 12.3173 9.95042 12.7627 10.3958C13.2081 10.8412 13.4583 11.4453 13.4583 12.0752C13.4583 12.7051 13.2081 13.3092 12.7627 13.7546C12.3173 14.2 11.7132 14.4502 11.0833 14.4502H4.75" stroke="black" stroke-width="1.1875" stroke-linecap="round" stroke-linejoin="round"/>
<path d="M6.33325 4.9502V14.4502" stroke="black" stroke-width="1.1875" stroke-linecap="round" stroke-linejoin="round"/>
<path d="M6.33325 9.7002H11.0833" stroke="black" stroke-width="1.1875" stroke-linecap="round" stroke-linejoin="round"/>
<path d="M7.125 2.5752V4.9502" stroke="black" stroke-width="1.1875" stroke-linecap="round" stroke-linejoin="round"/>
<path d="M10.2917 2.5752V4.9502" stroke="black" stroke-width="1.1875" stroke-linecap="round" stroke-linejoin="round"/>
<path d="M7.125 14.4502V16.8252" stroke="black" stroke-width="1.1875" stroke-linecap="round" stroke-linejoin="round"/>
<path d="M10.2917 14.4502V16.8252" stroke="black" stroke-width="1.1875" stroke-linecap="round" stroke-linejoin="round"/>
</svg>
