<svg width="19" height="20" viewBox="0 0 19 20" fill="none" xmlns="http://www.w3.org/2000/svg">
<path d="M11.0833 6.53361V4.95028C11.0833 4.53035 10.9165 4.12762 10.6196 3.83069C10.3227 3.53376 9.91993 3.36694 9.5 3.36694H3.95833C3.53841 3.36694 3.13568 3.53376 2.83875 3.83069C2.54181 4.12762 2.375 4.53035 2.375 4.95028V14.4503C2.375 14.8702 2.54181 15.2729 2.83875 15.5699C3.13568 15.8668 3.53841 16.0336 3.95833 16.0336H9.5C9.91993 16.0336 10.3227 15.8668 10.6196 15.5699C10.9165 15.2729 11.0833 14.8702 11.0833 14.4503V12.8669" stroke="white" stroke-width="1.375" stroke-linecap="round" stroke-linejoin="round"/>
<path d="M5.54175 9.7002H16.6251M16.6251 9.7002L14.2501 7.3252M16.6251 9.7002L14.2501 12.0752" stroke="white" stroke-width="1.375" stroke-linecap="round" stroke-linejoin="round"/>
</svg>
