<svg width="27" height="40" viewBox="0 0 27 40" fill="none" xmlns="http://www.w3.org/2000/svg">
<path d="M0 10.8866V4.23975L12.0852 11.2319V18.0514L0 10.8866Z" fill="#8F90FC"/>
<path d="M12.0852 11.2313L18.3004 7.86475L6.0426 0.699951L0 4.23919L12.0852 11.2313Z" fill="#6A6CF9"/>
<path d="M13.9843 19.0874V12.3542L19.9405 15.5482V22.454L13.9843 19.0874Z" fill="#3F639C"/>
<path d="M26.0695 12.2676L19.9406 15.6342V22.4537L26.0695 19.1734V12.2676Z" fill="#2C4B7B"/>
<path d="M19.9405 8.98755L13.9843 12.3541L19.9405 15.6344L26.0695 12.2678L19.9405 8.98755Z" fill="#21406F"/>
<path d="M0.345337 19.0005V12.699L6.12897 16.1519V22.4535L0.345337 19.0005Z" fill="#3F639C"/>
<path d="M7.94177 23.6622V17.3606L20.3723 24.5254V30.7406L7.94177 23.6622Z" fill="#3F639C"/>
<path d="M26.1558 27.5464V20.9858L20.2859 24.6114V30.8266L26.1558 27.5464Z" fill="#2C4B7B"/>
<path d="M0.172607 27.7194V21.0725L12.7757 28.2373V34.8842L0.172607 27.7194Z" fill="#3F639C"/>
<path d="M14.3296 35.5748V29.2732L20.3722 32.6398V39.2003L14.3296 35.5748Z" fill="#3F639C"/>
<path d="M26.3285 35.6611V29.2732L20.2859 32.6398V39.114L26.3285 35.6611Z" fill="#2C4B7B"/>
</svg>
